# xmcd CD Database Entry
#
# Track frame offsets:
# 150
# 9252
# 24137
# 46840
# 66840
# 99657
# 124937
# 143215
# 166112
# 253540
# 277365
# 315652
#
# Disc length: 4481 seconds
#
# Revision: 2
# Processed by: cddbd v1.4PL0 Copyright (c) Steve Scherf et al.
# Submitted via: tcd 2.0b
#
DISCID=9e117f0c
DTITLE=DIO - Holy Evil
DYEAR=1900
DGENRE=
TTITLE0=Intro
TTITLE1=Stand Up And Shout
TTITLE2=Straight Through The Heat
TTITLE3=Shame On The Night
TTITLE4=Children Of The Sea
TTITLE5=Holy Diver
TTITLE6=Durms Solo
TTITLE7=Rainbow In The Dark
TTITLE8=Heaven And Hell
TTITLE9=Don't Talk To Strangers
TTITLE10=Man On The Silver Mountain
TTITLE11=We Rock
EXTD=
EXTT0=
EXTT1=
EXTT2=
EXTT3=
EXTT4=
EXTT5=
EXTT6=
EXTT7=
EXTT8=
EXTT9=
EXTT10=
EXTT11=
PLAYORDER=
